<?xml version="1.0" encoding="utf-8"?>
<svg version="1.1" id="Layer_1"
xmlns="http://www.w3.org/2000/svg"
xmlns:xlink="http://www.w3.org/1999/xlink"
width="160px" height="160px"
xml:space="preserve">
<g id="PathID_11" transform="matrix(1, 0, 0, 1, 0, 0)">
<path style="fill:#000000;fill-opacity:0.0117647" d="M1.2 29.2Q30.8 24.4 51.6 42.4Q79.6 68.4 89.2 97.2L106 114L109.2 99.6Q96.8 59.6 62.4 34.8Q32 14.4 1.2 22.4L1.2 29.2M135.6 124.8L122.8 63.6L109.2 124.8L66.8 82.4L98.4 134.8L98.4 135.2L55.2 119.6L104.8 158.4L115.6 158.4L99.6 144.8L118.4 151.6L102.8 128L114.8 137.2L122.8 105.2L129.6 142.8L150 122L134.8 158.4L144.8 158.4L158.8 126L158.8 102.8L135.6 124.8M0 0L160 0L160 160L0 160L0 0" />
<path style="fill:#FFFFFF;fill-opacity:1" d="M1.2 22.4Q32 14.4 62.4 34.8Q96.8 59.6 109.2 99.6L106 114L89.2 97.2Q79.6 68.4 51.6 42.4Q30.8 24.4 1.2 29.2L1.2 22.4M158.8 102.8L158.8 126L144.8 158.4L134.8 158.4L150 122L129.6 142.8L122.8 105.2L114.8 137.2L102.8 128L118.4 151.6L99.6 144.8L115.6 158.4L104.8 158.4L55.2 119.6L98.4 135.2L98.4 134.8L66.8 82.4L109.2 124.8L122.8 63.6L135.6 124.8L158.8 102.8" />
</g>
</svg>
