<?xml version="1.0" encoding="UTF-8" standalone="no"?>
<svg xmlns:xlink="http://www.w3.org/1999/xlink" height="208.65px" width="207.9px" xmlns="http://www.w3.org/2000/svg">
  <path d="M82.7 0.0L90.45 0.0Q107.3 5.8 124.6 15.05 139.95 23.35 155.7 34.4 151.5 32.95 146.9 32.0 129.75 28.45 113.7 31.35 97.7 34.3 106.95 40.3 116.1 46.35 123.65 52.4 L124.3 56.35 114.35 56.35 118.35 81.6 143.45 95.45 153.35 95.45 153.4 95.5 158.1 98.1 158.2 98.1 Q161.6 99.65 165.4 99.9 L197.8 99.9 Q199.75 99.5 199.75 98.15 L199.75 98.1 199.3 95.45 200.85 95.45 199.95 90.3 207.45 102.25 Q208.15 103.4 207.8 104.2 204.95 121.65 198.35 137.0 L194.3 145.3 Q191.55 150.55 187.8 155.2 L185.9 157.4 Q175.15 169.5 157.15 177.5 L151.1 191.25 136.95 202.4 131.3 208.65 106.3 208.65 101.45 202.85 113.25 184.9 113.25 172.9 109.05 176.8 101.8 176.8 83.15 160.1 90.25 184.95 90.4 185.1 90.45 185.35 90.45 185.4 81.15 185.4 58.5 181.35 49.05 166.05 48.95 166.0 31.65 137.85 19.4 132.65 14.7 114.95 14.65 114.9 13.85 111.45 13.7 111.45 11.75 104.0 9.25 98.55 9.6 96.4 8.05 95.75 8.05 79.2 15.3 79.2 23.8 80.05 32.25 76.4 8.2 71.1 10.45 55.85 18.6 55.85 18.35 56.6 74.0 70.95 80.9 70.95 12.8 48.35 18.55 34.25 43.95 34.25 2.1 8.55 0.0 0.0 12.6 0.0 Q35.05 4.05 55.55 9.25 L55.1 3.6 62.95 0.5 72.75 2.3 88.85 13.2 82.2 13.2 68.8 10.1 58.75 10.1 100.7 23.1 108.35 23.1 105.05 19.4 103.25 17.55 100.55 15.05 94.2 10.1 89.3 10.1 84.65 7.15 82.7 0.0 M110.35 52.4 L110.3 52.25 110.3 52.4 110.35 52.4 M88.8 129.8 L39.15 122.2 40.75 128.45 75.0 148.6 93.8 148.6 88.8 129.8 M99.75 115.55 L115.15 115.55 115.15 108.6 99.0 108.6 99.75 115.55" fill="#FFFFFF" fill-rule="evenodd" stroke="none"/>
</svg>
